<svg width="73" height="74" viewBox="0 0 73 74" fill="none" xmlns="http://www.w3.org/2000/svg">
<g filter="url(#filter0_i_853_5438)">
<g clip-path="url(#clip0_853_5438)">
<rect x="20.1279" y="0.916992" width="56.5077" height="56.5077" rx="16.9523" transform="rotate(20.8352 20.1279 0.916992)" fill="#701819"/>
<g filter="url(#filter1_d_853_5438)">
<path d="M39.7774 36.5395L41.2862 32.5751C42.4586 33.3835 43.4931 34.4672 44.1663 35.8089L44.1728 35.8047C44.2267 35.8956 44.3043 35.9737 44.4109 36.0143C44.5513 36.0677 44.6975 36.0457 44.8187 35.9773L44.8241 35.9807L47.392 34.2608L47.3888 34.2574C47.4876 34.2043 47.5713 34.1212 47.6143 34.0082C47.665 33.8749 47.6495 33.7352 47.5892 33.6176C46.584 31.596 44.932 29.9832 42.7073 28.8408L43.5738 26.564C43.6688 26.3142 43.5431 26.0347 43.2933 25.9397L41.4981 25.2565C41.2483 25.1614 40.969 25.2868 40.8739 25.5366L40.0294 27.7556C35.9983 26.6817 32.76 28.278 31.6558 31.1794C30.169 35.0862 32.9601 37.431 35.6454 39.2754L33.951 43.7276C32.1806 42.6642 30.9939 41.0853 30.3511 39.5788C30.3468 39.5682 30.3418 39.5576 30.3362 39.5471L30.3234 39.5193L30.3187 39.5224C30.2658 39.425 30.1804 39.3491 30.0775 39.3081C29.9965 39.2781 29.909 39.2706 29.8241 39.2864C29.7392 39.3021 29.6602 39.3406 29.5954 39.3976L29.5902 39.3947L27.0587 41.1805L27.0592 41.1852C26.9558 41.238 26.8753 41.3268 26.8331 41.435C26.7783 41.5789 26.8031 41.7284 26.8759 41.8508L26.8692 41.8554C27.8479 44.0366 29.6226 46.0274 32.5404 47.4341L31.7286 49.5673C31.6335 49.8171 31.7589 50.0964 32.0087 50.1915L33.8039 50.8747C34.0537 50.9698 34.3331 50.844 34.4281 50.5946L35.2404 48.4612C39.6275 49.6369 42.6645 47.9654 43.8782 44.7761C45.3758 40.8411 42.481 38.4232 39.7774 36.5395ZM37.3288 34.8508C36.2931 34.0297 35.6526 33.2921 35.9698 32.4588C36.3414 31.4824 37.3221 31.0665 38.6516 31.3749L37.3288 34.8508ZM36.6289 44.8128L38.0938 40.9636C39.2051 41.8466 39.9204 42.6459 39.5598 43.5933C39.2099 44.5129 38.2033 45.0829 36.6289 44.8128Z" fill="#E8E8E8"/>
</g>
</g>
</g>
<defs>
<filter id="filter0_i_853_5438" x="0.0292969" y="0.916992" width="72.9111" height="78.1031" filterUnits="userSpaceOnUse" color-interpolation-filters="sRGB">
<feFlood flood-opacity="0" result="BackgroundImageFix"/>
<feBlend mode="normal" in="SourceGraphic" in2="BackgroundImageFix" result="shape"/>
<feColorMatrix in="SourceAlpha" type="matrix" values="0 0 0 0 0 0 0 0 0 0 0 0 0 0 0 0 0 0 127 0" result="hardAlpha"/>
<feOffset dy="5.19195"/>
<feGaussianBlur stdDeviation="2.59598"/>
<feComposite in2="hardAlpha" operator="arithmetic" k2="-1" k3="1"/>
<feColorMatrix type="matrix" values="0 0 0 0 0.0445934 0 0 0 0 0.0428515 0 0 0 0 0.0428515 0 0 0 0.25 0"/>
<feBlend mode="normal" in2="shape" result="effect1_innerShadow_853_5438"/>
</filter>
<filter id="filter1_d_853_5438" x="5.06098" y="10.8721" width="64.5206" height="64.5206" filterUnits="userSpaceOnUse" color-interpolation-filters="sRGB">
<feFlood flood-opacity="0" result="BackgroundImageFix"/>
<feColorMatrix in="SourceAlpha" type="matrix" values="0 0 0 0 0 0 0 0 0 0 0 0 0 0 0 0 0 0 127 0" result="hardAlpha"/>
<feOffset dy="5.19195"/>
<feGaussianBlur stdDeviation="2.59598"/>
<feComposite in2="hardAlpha" operator="out"/>
<feColorMatrix type="matrix" values="0 0 0 0 0 0 0 0 0 0 0 0 0 0 0 0 0 0 0.25 0"/>
<feBlend mode="normal" in2="BackgroundImageFix" result="effect1_dropShadow_853_5438"/>
<feBlend mode="normal" in="SourceGraphic" in2="effect1_dropShadow_853_5438" result="shape"/>
</filter>
<clipPath id="clip0_853_5438">
<rect x="20.1279" y="0.916992" width="56.5077" height="56.5077" rx="16.9523" transform="rotate(20.8352 20.1279 0.916992)" fill="white"/>
</clipPath>
</defs>
</svg>
