<svg width="76" height="76" viewBox="0 0 76 76" fill="none" xmlns="http://www.w3.org/2000/svg">
<g filter="url(#filter0_i_853_5449)">
<rect x="0.894775" y="21.4453" width="57.8329" height="57.8329" rx="17.3499" transform="rotate(-21.3213 0.894775 21.4453)" fill="#013305"/>
<path d="M34.2979 28.4678C30.7006 29.8719 28.9181 33.9365 30.3222 37.5339L31.5482 40.6748C31.8069 41.3377 31.9189 42.4587 31.8025 43.1554L31.3629 45.719C31.0918 47.3027 32.1801 48.5185 33.7796 48.4453C39.0746 48.182 44.1283 46.2095 48.2016 42.8162C49.347 41.8682 49.3164 40.0892 48.1325 39.1737L46.0724 37.5857C45.5258 37.1478 44.8487 36.2473 44.59 35.5844L43.364 32.4435C41.9642 28.857 37.8844 27.0679 34.2979 28.4678Z" stroke="#F3F1F1" stroke-width="1.75" stroke-miterlimit="10" stroke-linecap="round"/>
<path d="M36.4314 27.9986C36.0563 28.0323 35.6789 28.0919 35.3033 28.1885C34.209 28.4653 33.2388 28.9316 32.4102 29.5681C32.4115 28.6409 32.9734 27.7703 33.8863 27.414C34.7993 27.0576 35.8024 27.3174 36.4314 27.9986Z" stroke="#F3F1F1" stroke-width="1.75" stroke-miterlimit="10" stroke-linecap="round" stroke-linejoin="round"/>
<path d="M44.4091 44.7473C45.109 46.5405 44.2145 48.5804 42.4212 49.2803C41.53 49.6282 40.5598 49.5811 39.7439 49.2232C38.9279 48.8654 38.236 48.1837 37.8882 47.2925" stroke="#F3F1F1" stroke-width="1.75" stroke-miterlimit="10"/>
</g>
<defs>
<filter id="filter0_i_853_5449" x="0.894775" y="0.41748" width="74.9026" height="80.216" filterUnits="userSpaceOnUse" color-interpolation-filters="sRGB">
<feFlood flood-opacity="0" result="BackgroundImageFix"/>
<feBlend mode="normal" in="SourceGraphic" in2="BackgroundImageFix" result="shape"/>
<feColorMatrix in="SourceAlpha" type="matrix" values="0 0 0 0 0 0 0 0 0 0 0 0 0 0 0 0 0 0 127 0" result="hardAlpha"/>
<feOffset dy="5.3137"/>
<feGaussianBlur stdDeviation="2.65685"/>
<feComposite in2="hardAlpha" operator="arithmetic" k2="-1" k3="1"/>
<feColorMatrix type="matrix" values="0 0 0 0 0.0445934 0 0 0 0 0.0428515 0 0 0 0 0.0428515 0 0 0 0.25 0"/>
<feBlend mode="normal" in2="shape" result="effect1_innerShadow_853_5449"/>
</filter>
</defs>
</svg>
