<svg width="128" height="22" viewBox="0 0 128 22" fill="none" xmlns="http://www.w3.org/2000/svg">
<path d="M25.415 4.48633C26.9908 4.4864 28.4114 5.19588 29.4189 6.48828V4.79004H32.1318V16.3984C32.1318 20.8086 28.799 22 25.7246 22C23.6062 22 22.0301 21.5434 20.5059 20.1748L21.7725 18.249C22.7799 19.3893 24.0714 19.8203 25.7246 19.8203C27.5072 19.8203 29.4189 19.0092 29.4189 16.5V15.0303C28.4631 16.2466 27.0424 17.0575 25.415 17.0576C22.2373 17.0576 19.8857 14.8014 19.8857 10.7715C19.8859 6.81781 22.2116 4.48633 25.415 4.48633ZM121.438 13.9658L125.08 4.79004H128L121.98 19.2373C121.128 21.3156 119.629 21.9747 117.691 22C117.304 22 116.554 21.9236 116.167 21.8223L116.581 19.4404C116.865 19.5671 117.304 19.6426 117.614 19.6426C118.467 19.6426 119.035 19.3892 119.396 18.5781L120.017 17.1846L114.901 4.79004H117.795L121.438 13.9658ZM53.5859 4.79004H56.1182V7.12207H53.5859V13.5342C53.5859 14.3705 53.9996 14.9793 54.7744 14.9795C55.291 14.9795 55.7825 14.7769 55.9893 14.5488L56.6348 16.5508C56.1439 17.007 55.343 17.3359 54.0771 17.3359C51.9845 17.3359 50.874 16.221 50.874 14.1934V7.12207H48.8066V4.79004H50.874V1.44434H53.5859V4.79004ZM83.0732 4.48633C85.8376 4.48633 88.2666 5.62695 88.2666 8.92188V17.0322H85.5537V15.7139C84.6237 16.753 83.1768 17.3359 81.5234 17.3359C79.4825 17.3359 77.1827 15.9931 77.1826 13.2812C77.1826 10.4679 79.4825 9.30176 81.5234 9.30176C83.2026 9.3018 84.6495 9.83393 85.5537 10.873V9.04883C85.5537 7.62948 84.3647 6.76758 82.6338 6.76758C81.2389 6.76767 80.0244 7.2744 78.9395 8.31348L77.8291 6.46289C79.2758 5.11976 81.0841 4.48635 83.0732 4.48633ZM11.8066 2.7373H3.02246V7.12207H11.626V9.73242H3.02246V17.0322H0V0.126953H11.8066V2.7373ZM17.1426 17.0322H14.4297V4.79004H17.1426V17.0322ZM38.3604 6.46289C39.1871 5.49982 40.815 4.48633 42.7783 4.48633C45.4649 4.48644 46.8086 5.85515 46.8086 8.36426V17.0322H44.0957V9.32715C44.0957 7.42625 43.0877 6.84375 41.5635 6.84375C40.1943 6.84385 39.0062 7.65486 38.3604 8.49121V17.0322H35.6475V0.126953H38.3604V6.46289ZM77.6436 2.7373H72.4248V17.0322H69.4014V2.7373H64.1836V0.126953H77.6436V2.7373ZM94.4961 8.78809L98.0146 8.17969V0.126953H100.728V7.70996L104.247 7.10156V0.126953H106.959V6.63281L110.479 6.02441V0.126953H113.191V5.55469L114.462 5.33594L114.98 8.29688L113.191 8.60547V17.0322H110.479V9.0752L106.959 9.68359V17.0322H104.247V10.1523L100.728 10.7607V17.0322H98.0146V11.2305L94.4961 11.8389V17.0322H91.7832V12.3076L90.3965 12.5479L89.8779 9.58691L91.7832 9.25684V0.126953H94.4961V8.78809ZM82.582 11.127C81.058 11.1271 79.9219 11.9889 79.9219 13.332C79.922 14.6497 81.0581 15.5115 82.582 15.5117C83.7704 15.5117 84.9337 15.0805 85.5537 14.2441V12.3936C84.9336 11.5573 83.7704 11.127 82.582 11.127ZM26.2158 6.84375C24.0716 6.84375 22.7023 8.41456 22.7021 10.7715C22.7021 13.1286 24.0715 14.7002 26.2158 14.7002C27.4817 14.7001 28.8248 13.9651 29.4189 13.0527V8.49121C28.8248 7.5788 27.4817 6.8438 26.2158 6.84375ZM15.7725 0C16.7025 0 17.4521 0.735022 17.4521 1.64746C17.4521 2.5599 16.7025 3.29492 15.7725 3.29492C14.8684 3.29469 14.0938 2.55976 14.0938 1.64746C14.0938 0.735168 14.8684 0.000234938 15.7725 0Z" fill="#FFF4F5"/>
</svg>
