<svg width="32" height="32" viewBox="0 0 32 32" fill="none" xmlns="http://www.w3.org/2000/svg">
<path fill-rule="evenodd" clip-rule="evenodd" d="M6.60106 3.83988C6.60106 3.30969 7.03087 2.87988 7.56106 2.87988H26.5066C27.1739 2.87988 27.6376 3.54386 27.4079 4.17037L26.3519 7.05037C26.2132 7.42849 25.8533 7.67988 25.4506 7.67988H11.4011V16.799L14.3999 16.3275V10.72C14.3999 10.5433 14.5431 10.4 14.7199 10.4H15.0399C15.2166 10.4 15.3599 10.5433 15.3599 10.72V16.1766L16.5598 15.9879V10.72C16.5598 10.5433 16.7031 10.4 16.8798 10.4H17.1998C17.3765 10.4 17.5198 10.5433 17.5198 10.72V15.837L18.7198 15.6483V10.72C18.7198 10.5433 18.863 10.4 19.0398 10.4H19.3598C19.5365 10.4 19.6798 10.5433 19.6798 10.72V15.4974L20.8797 15.3087V10.72C20.8797 10.5433 21.023 10.4 21.1997 10.4H21.5197C21.6965 10.4 21.8397 10.5433 21.8397 10.72V15.1578L24.5783 14.7272C24.9647 14.6664 25.3493 14.8462 25.5506 15.1815L26.2464 16.3409C26.5965 16.9243 26.2455 17.6766 25.5736 17.7831L21.8397 18.375V24C21.8397 24.1768 21.6965 24.32 21.5197 24.32H21.1997C21.023 24.32 20.8797 24.1768 20.8797 24V18.5272L19.6798 18.7174V24C19.6798 24.1768 19.5365 24.32 19.3598 24.32H19.0398C18.863 24.32 18.7198 24.1768 18.7198 24V18.8696L17.5198 19.0598V24C17.5198 24.1768 17.3765 24.32 17.1998 24.32H16.8798C16.7031 24.32 16.5598 24.1768 16.5598 24V19.212L15.3599 19.4022V24C15.3599 24.1768 15.2166 24.32 15.0399 24.32H14.7199C14.5431 24.32 14.3999 24.1768 14.3999 24V19.5544L11.4011 20.0298V28.0219C11.4011 28.7011 10.7151 29.1655 10.0845 28.9132L7.20453 27.7612C6.84006 27.6154 6.60106 27.2624 6.60106 26.8699V20.7907L5.7904 20.9192C5.26675 21.0022 4.77495 20.645 4.69194 20.1214L4.49172 18.8583C4.40863 18.3342 4.76654 17.8421 5.29077 17.7597L6.60106 17.5537V6.71988V3.99985V3.83988Z" fill="url(#paint0_linear_1046_19)"/>
<defs>
<linearGradient id="paint0_linear_1046_19" x1="9.77979" y1="27.5877" x2="32.2749" y2="6.36055" gradientUnits="userSpaceOnUse">
<stop offset="0.00294006" stop-color="#7B0206"/>
<stop offset="0.17294" stop-color="#AD0613"/>
<stop offset="0.52294" stop-color="#E73232"/>
<stop offset="0.95294" stop-color="#FC4956"/>
</linearGradient>
</defs>
</svg>
